# xmcd
#
# Track frame offsets:
#	150
#	15120
#	27280
#	42065
#	55943
#	72158
#	86970
#	100730
#	115395
#	128210
#	144230
#	159148
#	171730
#	183568
#	195880
#
# Disc length: 2825 seconds
#
# Revision: 1
# Processed by: cddbd v1.5.1PL0 Copyright (c) Steve Scherf et al.
# Submitted via: CDex 1.50Beta5
#
DISCID=bf0b070f
DTITLE=石原裕次郎 - 石原裕次郎 6
DYEAR=1900
DGENRE=
TTITLE0=ふるさと慕情
TTITLE1=雲に向かって起つ
TTITLE2=思い出はいい奴だった
TTITLE3=憎いあンちくしょう
TTITLE4=黒いシャッポの歌
TTITLE5=赤いハンカチ
TTITLE6=露子に逢いたい
TTITLE7=花と竜
TTITLE8=残雪
TTITLE9=利根の船頭唄
TTITLE10=白い浮雲
TTITLE11=骨
TTITLE12=赤い帆影
TTITLE13=海に消えた恋
TTITLE14=青い満月
EXTD=
EXTT0=
EXTT1=
EXTT2=
EXTT3=
EXTT4=
EXTT5=
EXTT6=
EXTT7=
EXTT8=
EXTT9=
EXTT10=
EXTT11=
EXTT12=
EXTT13=
EXTT14=
PLAYORDER=
